<?xml version="1.0" encoding="UTF-8" standalone="no"?>
<!-- Created with Inkscape (http://www.inkscape.org/) -->

<svg
   version="1.1"
   id="svg1"
   width="1100"
   height="1275"
   viewBox="0 0 1099.5344 1272.516"
   sodipodi:docname="LogoManette.jpg"
   xmlns:inkscape="http://www.inkscape.org/namespaces/inkscape"
   xmlns:sodipodi="http://sodipodi.sourceforge.net/DTD/sodipodi-0.dtd"
   xmlns="http://www.w3.org/2000/svg"
   xmlns:svg="http://www.w3.org/2000/svg">
  <defs
     id="defs1" />
  <sodipodi:namedview
     id="namedview1"
     pagecolor="#ffffff"
     bordercolor="#000000"
     borderopacity="0.25"
     inkscape:showpageshadow="2"
     inkscape:pageopacity="0.0"
     inkscape:pagecheckerboard="0"
     inkscape:deskcolor="#d1d1d1"
     inkscape:export-bgcolor="#ffffff00" />
  <g
     inkscape:groupmode="layer"
     inkscape:label="Image"
     id="g1"
     transform="translate(-437.47253,-271.78683)">
    <path
       style="fill:#000000"
       d="m 1109.3719,1543.9191 c -13.7655,-1.1009 -67.7201,-8.5949 -71.361,-9.9117 -0.7485,-0.2708 -4.7932,-0.7519 -8.9882,-1.0693 -4.1951,-0.3174 -7.9205,-0.7582 -8.2788,-0.9796 -0.3583,-0.2215 -3.5136,-0.674 -7.0118,-1.0058 -7.4388,-0.7054 -8.6488,-1.4955 -7.1125,-4.645 1.5082,-3.092 5.7562,-16.8302 7.6682,-24.7994 6.4118,-26.7235 7.2028,-64.0971 1.9995,-94.4708 -3.884,-22.6723 -13.0679,-53.8425 -20.98474,-71.2225 -1.3084,-2.8724 -2.6644,-6.3599 -3.0133,-7.75 -0.8457,-3.3697 -2.4157,-3.2256 -2.4245,0.2225 0,1.5125 -0.9321,8.6 -2.0627,15.75 -1.1305,7.15 -2.2123,14.125 -2.4039,15.5 -0.6498,4.6644 -3.5452,18.4922 -4.1877,20 -0.3515,0.825 -0.7831,2.218 -0.9591,3.0955 -0.8355,4.1671 -9.9106,30.0193 -13.0792,37.2589 -3.0359,6.9366 -15.8756,32.549 -16.7646,33.4418 -0.3524,0.3539 -20.1605,-4.7466 -30.0358,-7.7342 -3.85,-1.1647 -9.25,-2.75 -12,-3.5228 -12.8496,-3.6109 -49.767,-17.5662 -51.95,-19.6377 -0.5225,-0.4958 -1.5012,-0.9015 -2.1748,-0.9015 -0.6736,0 -6.9961,-2.7695 -14.05,-6.1545 -24.1638,-11.5955 -47.0555,-24.7487 -65.3252,-37.5348 -4.12502,-2.8869 -8.97832,-6.2753 -10.78522,-7.5298 -4.5603,-3.1662 -25.0679,-19.4202 -28.7148,-22.7588 -1.65,-1.5106 -5.4652,-4.946 -8.4782,-7.6343 -26.5864,-23.7211 -60.6081,-65.8315 -77.0652,-95.3878 -1.9906,-3.575 -4.6578,-8.3 -5.9271,-10.5 -3.9293,-6.8102 -16.8117,-32.8602 -18.5695,-37.5503 -2.0762,-5.5392 -10.4671,-29.9153 -10.998,-31.9497 -0.2153,-0.825 -1.08,-4.65 -1.9215,-8.5 -0.8415,-3.85 -1.7864,-7.6749 -2.0998,-8.4998 -1.2331,-3.2463 -6.2593,-32.159 -7.5622,-43.5002 -2.0373,-17.7351 -1.7955,-72.7565 0.4002,-91.0485 1.7454,-14.54068 4.4714,-31.48478 7.157,-44.48678 0.8521,-4.1252 1.761,-8.8424 2.0197,-10.4826 1.7814,-11.29239 13.3021,-50.81579 18.0674,-61.98224 0.7041,-1.65 2.6424,-6.825 4.3072,-11.5 1.6648,-4.675 4.1192,-10.75 5.4542,-13.5 1.3351,-2.75 3.6055,-7.925 5.0454,-11.5 4.5953,-11.40878 26.61,-53.22661 28.7013,-54.51908 0.4777,-0.29528 3.2371,-4.46179 6.1318,-9.2589 15.0096,-24.8736 47.3967,-65.29688 67.4785,-84.22202 20.292,-19.12322 41.52122,-36.356 60.85882,-49.4022 3.85,-2.59742 8.7996,-6.00742 10.9991,-7.57779 2.1994,-1.57037 4.1586,-2.69565 4.3536,-2.50064 0.195,0.19502 3.006,-1.45526 6.2466,-3.66729 3.2406,-2.21202 9.8315,-6.07217 14.6464,-8.57811 15.6483,-8.14426 30.0031,-15.27397 30.7524,-15.27397 0.4029,0 4.1658,-1.60781 8.362,-3.5729 26.4615,-12.39198 85.2697,-28.38782 117.13994,-31.86203 10.7308,-1.16978 11.4007,-1.55727 12.4607,-7.20736 2.6372,-14.05725 16.7657,-27.76739 32.0278,-31.0794 8.7402,-1.8967 8.4804,-1.19967 5.4898,-14.72765 -1.0881,-4.92214 -1.9783,-9.93645 -1.9783,-11.14291 0,-1.42055 3.0998,-5.31479 8.7963,-11.05065 4.838,-4.87141 11.4755,-12.4571 14.75,-16.8571 3.2746,-4.4 6.2913,-8.15 6.7038,-8.33333 0.4125,-0.18334 0.75,-0.93334 0.75,-1.66667 0,-0.73333 0.372,-1.48333 0.8268,-1.66667 0.9491,-0.38266 9.0689,-12.7372 11.5564,-17.58333 3.3617,-6.54947 3.6245,-6.04357 14.1532,27.25 0.6957,2.2 2.488,9.175 3.9828,15.5 1.4948,6.325 3.4203,13.975 4.2789,17 0.8586,3.025 1.604,6.175 1.6565,7 0.4353,6.83782 1.9934,15.12694 3.0005,15.96276 0.6755,0.56061 5.5221,1.46455 10.7701,2.00874 5.248,0.5442 10.6841,1.42374 12.0802,1.95453 4.6852,1.7813 12.5963,8.17086 15.9631,12.89298 4.6649,6.5427 5.7997,9.60632 6.4554,17.42744 0.3144,3.74998 0.9697,7.06418 1.4563,7.3649 0.4865,0.30072 7.7326,2.09206 16.1022,3.98075 8.3697,1.8887 18.1426,4.3197 21.7176,5.40223 3.575,1.08253 10.325,3.04463 15,4.36024 25.4763,7.16935 58.0604,20.94162 85.1863,36.00552 7.3225,4.06647 17.6088,10.2615 22.8585,13.76675 5.2496,3.50524 10.7452,7.00265 12.2124,7.77204 1.4672,0.76938 3.9221,2.57851 5.4552,4.02029 1.5332,1.44178 5.4876,4.63183 8.7876,7.08901 21.7367,16.18514 52.8579,46.3842 70.6273,68.53472 13.9324,17.3674 19.7457,25.08431 21.0453,27.93667 0.6317,1.38623 1.5262,2.52043 1.9879,2.52043 0.4617,0 0.8395,0.6375 0.8395,1.41667 0,0.77916 0.3891,1.56666 0.8647,1.75 1.0748,0.41436 9.8928,13.6035 13.5943,20.33333 1.5126,2.75 3.1051,5.45 3.539,6 2.0639,2.61635 18.9696,35.44597 22.6578,44 1.1857,2.75 3.7556,8.6 5.7108,13 5.0961,11.46811 10.2875,25.19205 14.7527,39 2.1343,6.6 4.2953,12.9 4.8022,14 0.5069,1.1 0.9448,2.675 0.9731,3.5 0.028,0.825 2.5432,11.175 5.5888,22.99995 8.6976,33.76989 15.2189,75.52427 16.1651,103.50017 0.9816,29.0239 0.4173,66.8937 -1.1474,77 -0.3406,2.2 -0.6022,4.9 -0.5812,6 0.083,4.3624 -4.1955,32.8115 -6.9932,46.5 -3.597,17.5992 -12.5406,51.0221 -15.3864,57.5 -0.7249,1.65 -1.6389,4.125 -2.0312,5.5 -2.1481,7.5286 -10.0095,25.6963 -18.1187,41.8722 l -9.21,18.3722 1.3662,4.6278 c 1.3803,4.6757 1.949,8.1208 2.9926,18.1278 0.3155,3.025 0.8182,6.175 1.1172,7 2.1816,6.0189 2.1666,75.2077 -0.018,82.021 -0.2608,0.8135 -0.6893,3.3616 -0.9524,5.6625 -0.5454,4.7707 -4.5567,13.778 -7.5563,16.9671 -1.1125,1.1829 -5.0844,3.1535 -8.8264,4.3793 -3.742,1.2258 -7.5743,2.9001 -8.5164,3.7207 -4.0281,3.5089 -4.8001,1.1573 -6.319,-19.2506 -0.2865,-3.85 -0.9797,-9.7 -1.5405,-13 -0.5607,-3.3 -1.2187,-7.575 -1.4621,-9.5 -0.2435,-1.925 -0.7486,-5.075 -1.1225,-7 -0.3738,-1.925 -0.6004,-3.8482 -0.5035,-4.2738 0.097,-0.4256 -0.7273,-5.7918 -1.8317,-11.9249 -1.1043,-6.1331 -2.0079,-11.5414 -2.0079,-12.0183 0,-0.886 -8.4473,3.5816 -10.8007,5.7122 -1.052,0.9524 -1.08,3.2642 -0.1466,12.0912 0.6348,6.0025 1.2743,25.4576 1.4211,43.2336 l 0.267,32.3199 -10.6777,10.4332 c -16.7379,16.3547 -20.4859,18.5501 -35.0631,20.5388 -4.125,0.5628 -9.3134,1.6289 -11.5298,2.369 -2.2164,0.7402 -5.7039,1.6599 -7.75,2.0438 l -3.7202,0.6979 v -45.6113 c 0,-41.7773 -0.3405,-48.1055 -2.4083,-44.7596 -0.2895,0.4684 -2.6786,1.654 -5.309,2.6347 -2.6305,0.9807 -6.6029,2.5916 -8.8277,3.5799 l -4.045,1.7969 -1.235,18.3184 c -0.6793,10.0751 -1.9012,23.7184 -2.7154,30.3184 -0.8141,6.6 -1.7054,15.15 -1.9806,19 -0.4194,5.8678 -1.8428,15.0488 -4.0698,26.25 -0.2627,1.3214 -1.1807,2.25 -2.2242,2.25 -0.9773,0 -5.1313,2.082 -9.231,4.6267 -9.8882,6.1377 -21.428,12.3343 -25.3142,13.5932 -4.9839,1.6145 -48.6431,2.5642 -48.6413,1.0581 8e-4,-0.6722 1.5532,-6.9722 3.4498,-14 1.8966,-7.0279 3.6488,-13.9163 3.8938,-15.3075 0.245,-1.3912 0.9322,-4.3162 1.5272,-6.5 1.6239,-5.961 5.8677,-28.3994 7.9378,-41.9705 l 1.8305,-12 -11.0688,2.8238 c -6.0878,1.553 -12.0461,2.972 -13.2405,3.1533 -6.2688,0.9514 -8.3285,1.7802 -8.3313,3.3524 0,1.7144 -6.3395,28.2891 -8.0284,33.6705 -0.5179,1.65 -2.5199,9.075 -4.4489,16.5 -3.3347,12.8354 -5.7945,21.3217 -9.42,32.5 -1.3427,4.1398 -2.0499,5.0249 -4.1107,5.145 -4.223,0.246 -20.8912,3.1648 -33.489,5.8644 -26.7033,5.7223 -53.2495,8.2918 -71,6.8722 z m 196.6611,-260.3816 c 3.4693,-3.025 10.6932,-9.4096 16.0532,-14.1881 11.1268,-9.9197 15.4443,-13.0137 25.2857,-18.1205 22.4684,-11.6592 46.7281,-10.981 73,2.0405 4.95,2.4535 9.5625,4.9226 10.25,5.4869 1.7038,1.3986 1.6499,-1.5723 -0.1362,-7.507 -0.7624,-2.5333 -1.1374,-4.8548 -0.8333,-5.1589 0.304,-0.3041 0.085,-0.5529 -0.486,-0.5529 -0.5714,0 -1.3308,-1.8258 -1.6877,-4.0573 -1.1457,-7.1652 -7.9436,-28.6394 -12.4859,-39.4427 -0.4625,-1.1 -2.2826,-5.825 -4.0446,-10.5 -9.7084,-25.7584 -41.2887,-81.2379 -53.7918,-94.5 -1.037,-1.1 -2.2479,-2.9 -2.6908,-4 l -0.8052,-2 -0.7959,2 c -0.4378,1.1 -1.7752,9.425 -2.9721,18.5 -1.1969,9.075 -2.5677,18.075 -3.0463,20 -0.4785,1.925 -1.1316,5.525 -1.4514,8 -2.6167,20.256 -9.9955,48.0879 -23.6294,89.1275 -6.4257,19.3422 -18.1593,49.1915 -21.2885,54.1565 -1.9934,3.1628 -3.0417,7.0337 -1.7832,6.5843 0.5674,-0.2026 3.8701,-2.8433 7.3394,-5.8683 z m -211.3147,-71.4051 c 0.4819,-0.2978 2.5417,-0.748 4.5775,-1.0005 3.4168,-0.4238 9.2905,-2.1965 22.0761,-6.6623 14.6268,-5.109 49.7014,-11.2142 73.1813,-12.7381 l 14.1812,-0.9204 6.3784,-4.5514 c 16.8449,-12.0203 30.9734,-38.7273 37.1504,-70.225 1.7253,-8.7979 4.6087,-32.0972 4.6087,-37.2411 0,-3.1631 -0.1214,-3.2563 -4.25,-3.262 -9.4168,-0.013 -45.5454,-7.3767 -58.25,-11.8724 -1.65,-0.5839 -12,-4.019 -23,-7.6336 -11,-3.6146 -20.7643,-6.9925 -21.6985,-7.5064 -2.4419,-1.3433 -14.228,-3.7361 -21.7173,-4.4092 -12.5057,-1.1238 -31.6531,3.8664 -46.5842,12.1409 -16.7444,9.2793 -29.4059,20.801 -46.8834,42.6633 -14.3481,17.9479 -29.6786,35.3355 -46.90114,53.1944 l -13.5696,14.0712 7.4216,2.1835 c 9.631,2.8335 24.14154,9.1114 31.83924,13.7752 9.7518,5.9082 19.8137,12.4862 23.5932,15.4241 6.5923,5.1244 18.6981,10.9624 26.1284,12.6005 4.0544,0.8938 7.7737,1.9932 8.265,2.4431 0.9487,0.8687 21.9679,0.4441 23.4531,-0.4738 z m 342.6536,-78.6187 c 7.2851,-4.7146 16.1748,-9.7709 27.5,-15.6415 10.9972,-5.7006 13.7409,-7.7295 18.6816,-13.8148 4.9898,-6.1459 8.5951,-13.2378 10.4314,-20.5199 2.165,-8.5858 1.805,-69.1581 -0.5842,-98.26738 l -1.8686,-22.7673 -3.6882,0.4446 c -4.8504,0.5846 -16.972,5.4656 -16.972,6.8341 0,0.4158 -0.5162,0.7559 -1.147,0.7559 -1.0779,0 -6.0306,3.7821 -11.9687,9.1399 -1.4387,1.2981 -7.4956,8.8851 -13.4598,16.8601 -12.2914,16.43538 -26.8409,31.51768 -36.4245,37.75828 -3.575,2.3279 -6.95,4.5868 -7.5,5.0198 -1.1251,0.8858 -6.1405,3.2657 -11.75,5.5757 -2.0625,0.8493 -3.75,1.8236 -3.75,2.1651 0,0.3415 1.2818,2.5019 2.8485,4.801 6.9571,10.2094 19.0407,31.3275 25.2794,44.1802 6.3486,13.0789 15.8721,37.1833 15.8721,40.1728 0,2.1173 2.0822,1.4568 8.5,-2.6966 z m -279.5,-507.53443 c 0,-0.26742 3.6715,-19.78838 4.9311,-26.21854 0.6876,-3.51009 0.5448,-4.4283 -0.7966,-5.12268 -1.6479,-0.85294 -15.2196,-2.9461 -36.8801,-5.68799 -16.6319,-2.10535 -71.1745,-3.00322 -91.0191,-1.49835 -21.9314,1.66311 -21.2518,1.47312 -21.1575,5.91513 0.1091,5.1426 6.2592,28.70237 7.4454,28.52226 8.3941,-1.27442 48.3523,-2.47447 64.9768,-1.95143 18.0258,0.56713 62.0828,4.86659 63.4184,6.1889 0.4254,0.42118 9.0816,0.28078 9.0816,-0.1473 z M 470.28204,574.39223 c -0.3017,-0.48811 -0.9468,-0.64131 -1.4336,-0.34044 -0.4868,0.30086 -3.7654,-0.75896 -7.2858,-2.35517 -15.3628,-6.96585 -23.8919,-20.46555 -24.082,-38.11689 -0.096,-8.9139 0.6703,-16.65485 1.7562,-17.74075 0.3492,-0.34922 0.6418,-1.57243 0.6502,-2.71827 0.032,-4.40878 1.0069,-4.71064 10.0498,-3.11306 4.6392,0.81958 12.5518,1.78727 17.5836,2.15042 l 9.14879,0.66028 0.1172,19.10951 c 0.064,10.51024 0.7176,24.28452 1.4514,30.60952 0.7339,6.325 1.1619,11.70227 0.9513,11.9495 -0.7374,0.86534 -8.36389,0.7843 -8.90709,-0.0946 z m 35.4619,-0.54582 c -1.0951,-0.2749 -1.8244,-1.94665 -2.2287,-5.10882 -1.8541,-14.50099 -2.7166,-29.36076 -2.4475,-42.16404 l 0.304,-14.46383 3.5,-0.87528 c 16.4566,-4.11543 32.71889,-10.38255 40.35769,-15.55294 2.2782,-1.54207 4.68,-3.11661 5.3373,-3.49898 0.8214,-0.47783 2.1304,2.22487 4.1864,8.64306 4.0922,12.77515 4.6228,14.05229 14.5988,35.14135 5.3451,11.29937 6.3467,14.16633 5.3045,15.18351 -2.5692,2.50763 -22.4109,11.67539 -32.2313,14.89232 -5.5382,1.81418 -14.79079,4.26609 -20.56139,5.44869 -13.297,2.72501 -14.1494,2.84955 -16.1198,2.35496 z m 86.0697,-46.8126 c -7.00951,-15.03139 -13.21061,-31.3829 -17.36901,-45.80033 l -2.5393,-8.8039 4.4832,-4.67862 c 2.4657,-2.57325 4.4832,-4.96302 4.4832,-5.3106 0,-0.34758 1.3428,-2.15544 2.984,-4.01747 1.6412,-1.86203 2.99121,-3.65302 3.00001,-3.97997 0.01,-0.32695 1.1577,-1.90195 2.5532,-3.5 1.3954,-1.59805 7.2746,-9.99304 13.0648,-18.65554 5.7902,-8.6625 10.8642,-15.75 11.2754,-15.75 0.795,0 3.7025,6.29653 7.841,16.98065 1.3889,3.58564 3.3266,8.31935 4.3061,10.51935 3.8104,8.55824 11.0848,24.0741 11.9555,25.5 0.5037,0.825 2.317,4.12237 4.0295,7.32748 l 3.1138,5.82749 -4.2368,5.67251 c -13.4094,17.9537 -40.578,47.17252 -43.8625,47.17252 -0.6141,0 -2.9011,-3.82661 -5.0821,-8.50357 z m 446.70116,-35.25018 c -1.0213,-2.61044 -2.6501,-6.54625 -3.6195,-8.74625 -0.9694,-2.2 -2.0976,-5.125 -2.5071,-6.5 -0.4095,-1.375 -4.0682,-9.15244 -8.1305,-17.2832 -4.0622,-8.13075 -7.3859,-15.64827 -7.3859,-16.70559 0,-1.05731 1.1272,-3.58345 2.5049,-5.61364 2.1622,-3.18612 12.1091,-23.02917 14.4858,-28.89757 0.4455,-1.1 1.6866,-4.025 2.7581,-6.5 1.0715,-2.475 3.4781,-9.3375 5.348,-15.25 1.8699,-5.9125 3.6256,-10.74999 3.9015,-10.74999 0.6576,2e-5 8.9348,11.25928 12.4977,16.99999 1.536,2.475 4.0039,6.075 5.4844,8 1.4804,1.925 3.7637,5.525 5.074,8 1.3102,2.475 2.8991,5.175 3.5307,6 0.6317,0.825 3.249,5.45424 5.8163,10.28721 5.1618,9.71718 5.1693,8.38029 -0.099,17.71279 -0.7762,1.375 -2.0865,4.0074 -2.9119,5.84978 -2.5485,5.68925 -12.4692,21.22625 -19.2516,30.15022 -7.9399,10.44712 -14.2553,18.00124 -15.0453,17.99625 -0.3264,-0.002 -1.4291,-2.13956 -2.4505,-4.75 z M 657.16664,453.28738 c -1.5064,-2.8875 -3.3391,-6.6 -4.0727,-8.25 -0.7336,-1.65 -2.1675,-4.8 -3.1865,-7 -5.6146,-12.12184 -11.8841,-28.51043 -15.6847,-41 -0.1674,-0.55 -0.8205,-3.04959 -1.4514,-5.55465 l -1.1472,-4.55466 7.8738,-10.81862 c 8.4875,-11.66185 25.4364,-32.74066 31.2159,-38.82207 4.3701,-4.59848 5.7926,-4.70461 6.7015,-0.5 1.2108,5.60124 9.5239,29.68026 12.8603,37.25 0.7273,1.65 2.3861,5.7 3.6864,9 1.3003,3.3 3.3869,7.97952 4.6369,10.39894 1.25,2.41942 2.2728,4.74811 2.2728,5.17487 0,0.42676 -4.2537,6.83015 -9.4526,14.22974 -5.1989,7.3996 -10.2614,14.84371 -11.25,16.54247 -4.3496,7.47426 -18.8658,29.136 -19.5306,29.14455 -0.4032,0.005 -1.9656,-2.35307 -3.4719,-5.24057 z m 342.53842,-34.65733 c -0.7131,-1.94101 -9.9138,-12.09488 -22.6982,-25.04968 l -13.3649,-13.54299 2.1177,-4 c 1.1647,-2.2 2.1164,-4.38199 2.1149,-4.84887 0,-0.46688 0.6454,-2.26688 1.4377,-4 3.5307,-7.72362 9.3152,-31.30176 11.1383,-45.40113 0.4462,-3.45071 1.1488,-5.25 2.05,-5.25 0.7542,0 1.3712,0.45 1.3712,1 0,0.55 0.4798,1 1.0663,1 1.5785,0 19.60824,13.58597 24.72804,18.63335 2.4361,2.40166 4.7353,4.36665 5.1093,4.36665 0.374,0 2.5737,1.92953 4.8882,4.28785 5.0344,5.12966 5.2606,7.39301 2.1078,21.08836 -3.4067,14.79876 -8.7603,29.70953 -16.1116,44.87379 -3.4893,7.19777 -5.1311,9.08444 -5.95474,6.84267 z M 714.90264,370.80877 c -5.2744,-12.55691 -12.8097,-36.43606 -16.3924,-51.94686 l -1.4264,-6.17548 10.0082,-6.74835 c 9.4075,-6.34334 29.9913,-17.45073 37.7797,-20.3866 5.4095,-2.03912 14.4018,-4.95124 14.5774,-4.72083 0.087,0.11371 1.3704,6.73173 2.8527,14.70673 1.4823,7.975 4.2419,21.35398 6.1325,29.73107 1.8905,8.37709 3.4374,15.85314 3.4374,16.61344 0,0.7603 -2.8125,2.61974 -6.25,4.13209 -9.0447,3.97925 -21.5274,11.24869 -26.9294,15.6826 -2.5737,2.11244 -5.0032,3.8408 -5.399,3.8408 -0.3958,0 -2.2492,1.575 -4.1187,3.5 -1.8696,1.925 -3.8052,3.5 -4.3014,3.5 -0.4962,0 -1.262,0.5625 -1.7018,1.25 -0.4399,0.6875 -1.7458,2.04712 -2.9021,3.02139 -2.083,1.75503 -2.1325,1.69964 -5.3667,-6 z m 217.46912,-10.605 c -10.6832,-5.59055 -20.4305,-10.04721 -24.5,-11.20185 -1.375,-0.39012 -2.95,-1.01615 -3.5,-1.39118 -0.55,-0.37502 -5.275,-1.98602 -10.5,-3.58 -5.225,-1.59398 -9.6467,-2.99127 -9.826,-3.10508 -0.1793,-0.11382 1.0332,-4.45022 2.6945,-9.63645 4.5198,-14.10984 8.92,-32.26753 10.3321,-42.63594 1.4685,-10.78219 -0.6826,-10.32558 18.7994,-3.99046 12.7817,4.15633 37.3925,14.15622 39.8875,16.20713 3.0236,2.48548 -0.7541,31.65669 -6.3539,49.06371 -2.9817,9.26903 -5.5904,15.6163 -6.3922,15.55346 -0.3528,-0.0276 -5.1414,-2.40515 -10.6414,-5.28334 z m -136.7846,-25.0495 c -0.2568,-1.16429 -2.0762,-9.09189 -4.043,-17.61689 -4.6439,-20.12777 -8.127,-40.94693 -7.0325,-42.03441 1.146,-1.13872 4.2892,-1.59105 20.8601,-3.00186 15.4245,-1.31322 42.0804,-0.75941 57.75,1.19983 l 9.75,1.21909 0.014,4.05868 c 0.033,9.62482 -7.3479,42.06733 -12.1207,53.27902 -1.7821,4.18633 -1.8312,4.21604 -6.0948,3.68606 -8.9767,-1.11583 -41.4069,-1.48072 -45.2982,-0.50967 -2.2,0.54898 -6.0965,1.18689 -8.6589,1.41759 -4.1049,0.36957 -4.7144,0.16772 -5.1258,-1.69744 z"
       id="path1" />
  </g>
</svg>
